<?xml version="1.0" encoding="utf-8"?>
<!-- Generator: Adobe Illustrator 23.1.0, SVG Export Plug-In . SVG Version: 6.00 Build 0)  -->
<svg version="1.1" id="Camada_1" xmlns="http://www.w3.org/2000/svg" xmlns:xlink="http://www.w3.org/1999/xlink" x="0px" y="0px"
	 viewBox="0 0 531.6 531.6" style="enable-background:new 0 0 531.6 531.6;" xml:space="preserve">
<style type="text/css">
	.st0{fill-rule:evenodd;clip-rule:evenodd;fill:#FFFFFF;}
</style>
<path class="st0" d="M502.8,325.9l-1.4,5.1c-1.1,4.3-3.1,10.3-6,18.2l-3.8,9.6l-3.8,8.3c-0.8,1.8-1.6,3.4-2.2,4.6L452.6,355l0.9-1.7
	l0.1-0.2c0.5-1.1,1-2.2,1.6-3.5c1.1-2.3,2.2-4.8,3.3-7.5l2.3-5.9c0.5-1.3,0.9-2.5,1.3-3.7c0.2-0.6,0.4-1.1,0.6-1.7l0.6-1.8l22.5,7
	l-0.1,0.4c-0.3,0.8-0.6,1.7-0.9,2.7c-0.6,1.8-1.3,3.8-2,5.7l-3.3,8.3l-0.3,0.6l-11.1-4.9c0.4-1,0.9-2.3,1.4-3.5l1.4-3.4l2,0.7
	l-1.4,3.5l6.6,2.6l2.3-5.8c0.3-0.8,0.5-1.4,0.5-1.4l1-3.2l-15.2-5.5l-1.2,3.3c0,0-0.3,0.8-0.8,2l-1.8,4.6c-1.2,3.1-2.7,6.2-2.7,6.3
	l-1.6,3.3l24.2,10.6l3.2-7.1l3.3-8.4c0.9-2.1,1.6-4.2,2.2-6.1c0.3-0.9,0.6-1.8,0.9-2.6l2.5-7.3l-36.1-11.2l-2.8,8.3
	c-0.2,0.6-0.4,1.2-0.6,1.8c-0.3,1-0.7,2.1-1.2,3.3l-2.4,5.9c-0.9,2.4-2.1,4.9-3.1,7.1c-0.6,1.3-1.1,2.5-1.6,3.5l-4,7.8l0,0l-0.3,0.6
	c-0.1,0.1-5.6,10.2-12.2,19.6c-2.6,3.8-5.5,7.4-8,10.6l-1.5,1.9l-7.1,8.2l33,28.9c-0.5,0.6-1.2,1.2-1.9,1.9l-1.8,1.9
	c-3.2,3.4-7.9,7.9-13.9,13.4c-7.2,6.5-15.1,12.4-19.2,15.4l-21.3-29.9l1.7-1.2c0.9-0.7,1.9-1.5,3-2.4c2-1.5,4.2-3.2,6.4-5.1l0.6-0.5
	c3.2-2.8,6.3-5.3,8.5-7.5l1.4-1.3L427,429l-0.3,0.3c-0.6,0.6-1.3,1.3-2.1,2c-1.4,1.3-2.9,2.8-4.5,4.1l-6.8,5.8l-0.5,0.4l-7.6-9.4
	c0.9-0.7,1.9-1.6,2.9-2.4l2.8-2.4l1.4,1.5l-2.9,2.5l4.7,5.3l8.4-7.2l-11-11.9l-8.1,7c-2.5,2.2-5.3,4.3-5.3,4.3l-2.9,2.2l16.5,20.5
	l6.2-4.8l6.9-5.9c1.8-1.5,3.4-3,4.8-4.4c0.7-0.7,1.4-1.3,2-1.9l5.6-5.3l-26.7-26.5l-6.5,6.1c-2.1,2.1-5.2,4.7-8.1,7.2l-0.6,0.5
	c-2,1.7-4.2,3.4-6.1,4.9c-1.1,0.9-2.2,1.7-3.1,2.4l-7.2,5.1l0,0l-6.8,4.3c-1.4,0.9-3.1,1.9-4.9,2.9l-1.4,0.8
	c-2.3,1.4-4.8,2.8-7.5,4.1c-4,2.1-8.1,3.9-11.7,5.5l-2.6,1.2l-10.1,3.9l15.6,40.8c-0.8,0.3-1.7,0.6-2.7,0.9l-2.4,0.8
	c-4.2,1.5-10.1,3.2-18.5,5.4l-10.1,2.3l-9,1.6l-5.2,0.8l-4.8-36.3c0.6-0.1,1.3-0.2,2-0.3l5.4-1c2-0.3,4.3-0.7,6.5-1.3l6.2-1.4
	c1.3-0.3,2.6-0.7,3.8-1c0.6-0.2,1.2-0.3,1.7-0.5l1.9-0.5l7,22.3l-0.4,0.1c-0.8,0.2-1.8,0.5-2.8,0.8c-1.8,0.5-3.9,1.1-5.9,1.6l-8.8,2
	c-0.2,0-0.3,0.1-0.5,0.1l-2.3-11.8c1.1-0.2,2.4-0.5,3.7-0.8l3.6-0.8l0.5,2l-3.7,0.9l1.6,6.9l6.1-1.4c0.9-0.2,1.5-0.4,1.5-0.4
	l3.2-1.1l-4.1-15.5l-3.5,1c0,0-0.8,0.2-2,0.5l-4.9,1.1c-3.3,0.8-6.7,1.4-6.7,1.4l-3.6,0.6l4.9,25.6l3.4-0.5c0,0,1.7-0.3,4.3-0.8
	l8.9-2c2.2-0.5,4.4-1.1,6.3-1.7c0.9-0.3,1.8-0.5,2.7-0.8l7.5-2.1l-11.2-35.8l-8.5,2.4c-0.6,0.2-1.2,0.3-1.8,0.5
	c-1.1,0.3-2.2,0.6-3.4,0.9l-6.3,1.4c-2,0.5-4.1,0.9-6,1.2l-5.5,1c-0.9,0.2-1.8,0.3-2.5,0.4c-0.5,0.1-0.9,0.1-1.2,0.1l-2.2,0.3l0-0.1
	L288,462c-0.1,0-0.7,0.1-1.7,0.2l-5.4,0.4c-4,0.4-9.6,0.5-15,0.6l-0.8,0l-8.6-0.2c-1.7-0.1-3.4-0.2-4.9-0.3
	c-0.9-0.1-1.8-0.1-2.6-0.2l-0.4,0c-1.9-0.1-3.6-0.3-4.7-0.4l-5.6-0.7l-5.3,43.3c-0.2,0-0.4-0.1-0.6-0.1c-1.3-0.2-2.8-0.3-4.5-0.6
	l-9.1-1.6c-2.1-0.3-4.2-0.8-6.5-1.4c-1.2-0.3-2.4-0.6-3.7-0.8c-2.9-0.6-5.8-1.4-8.7-2.2l-1.3-0.4c-3.3-0.9-6.2-1.7-8.6-2.6
	c-2-0.7-3.7-1.2-5-1.7l12.7-34.4l1.9,0.6c0.5,0.2,1.1,0.4,1.7,0.6c1.1,0.4,2.4,0.8,3.7,1.2l6.1,1.7c2.4,0.7,4.9,1.3,6.4,1.6l5.4,1.2
	c0.7,0.2,1.4,0.3,2.1,0.4l-4.2,23l-0.5-0.1c-1.6-0.3-3.5-0.7-5.5-1.2c-1.1-0.3-2.2-0.5-3.4-0.8c-2.4-0.5-4.7-1.2-6.8-1.8l-2.3-0.6
	l3.5-11.5l3.5,1c1.3,0.4,2.6,0.7,3.8,1l-0.5,2l-0.3-0.1c-1.6-0.3-3.3-0.8-3.3-0.8l-2.1,6.7c0.1,0,2,0.6,3.9,1l7.1,1.6l3.7-15.7
	l-6.4-1.5c-1.1-0.2-2.4-0.5-3.8-1l-10.3-2.9l-7.6,25l9.2,2.6c2.1,0.6,4.7,1.3,7.3,1.9c1.1,0.3,2.2,0.5,3.3,0.8
	c2.1,0.5,4.1,0.9,5.8,1.3l7.6,1.3l6.8-36.9l-4.9-0.9c-0.4-0.1-0.8-0.1-1.2-0.2c-0.7-0.1-1.5-0.3-2.5-0.5l-5.5-1.3
	c-1.5-0.3-3.7-0.8-6-1.5l-6.1-1.7c-1.2-0.4-2.3-0.7-3.4-1.1c-0.6-0.2-1.3-0.4-1.8-0.6l-5.7-1.9l0-0.1l-3.4-1.3
	c-0.1,0-10.9-4.1-21-9.5c-4-2.2-9.8-5.3-13.8-8l-4.3-2.8l-4.6-3.2l-25.1,35.9l-4.2-3l-1.7-1.3c-3.9-3-8.8-6.8-13.5-10.9
	c-2.8-2.3-5.4-4.8-7.6-6.9c-2.2-2.1-4.6-4.3-6.4-6.3l-3.7-3.8l27.4-24.6l1.4,1.4c0.4,0.4,0.8,0.8,1.3,1.3c0.8,0.9,1.7,1.8,2.7,2.8
	l4.6,4.3c2.1,2,4.2,3.8,6.2,5.4c1.1,0.9,2,1.7,3.1,2.6l1.5,1.2l-14.6,18.4l-0.5-0.4c-1.2-0.9-2.6-2.1-4.1-3.4
	c-0.9-0.8-1.8-1.5-2.7-2.3c-2.1-1.8-4.2-3.7-5.8-5.3l-1.1-1.1l8.5-8.6l2.6,2.5c1,0.9,2,1.8,2.9,2.6l0,0l-1.4,1.6l-0.2-0.2
	c-1.3-1.1-2.5-2.3-2.6-2.3l-5,5c0.1,0.1,1.5,1.4,2.9,2.6l5.5,4.7l10.7-12.2l-4.3-3.7c-0.3-0.3-0.7-0.6-1.1-0.9
	c-0.8-0.7-1.7-1.4-2.5-2.3l-7.7-7.3l-18.5,18.6l6.4,6c1.7,1.6,3.9,3.7,6.1,5.5c0.9,0.7,1.8,1.5,2.6,2.2c1.6,1.4,3.1,2.7,4.4,3.7
	l6.1,4.7l23.4-29.5l-6.9-5.4c-0.9-0.8-1.9-1.7-3.1-2.6c-1.8-1.5-3.9-3.3-5.8-5.2l-4.6-4.3c-0.9-0.9-1.7-1.7-2.5-2.5
	c-0.5-0.5-0.9-1-1.3-1.4l-2.8-2.9c-0.5-0.5-0.8-0.9-0.8-0.9l-0.5-0.6l0,0l-0.2-0.2l-1.7-2l0,0l-2.3-2.7c-0.8-0.9-1.7-1.9-2.7-3.3
	l-4.6-5.8l-5-6.9c-2.8-4.1-6.2-9.3-8.5-13.5c-2.1-3.6-3.4-6.1-3.4-6.1l-1.6-3.3L47.9,374l-2.4-4.6l-0.9-1.9
	c-2.1-4.5-4.7-10.1-6.9-16c-1.2-2.9-2.3-6-3.3-8.9l-0.2-0.7c-1.1-3.1-2-5.9-2.7-8.4l-1.4-5.1l35.8-9.1l0.6,1.9
	c0.2,0.5,0.3,1.1,0.5,1.7c0.3,1.2,0.7,2.4,1.1,3.7l2,5.9c0.7,2.2,1.5,4.3,2.3,6.2l2.1,5.2c0.3,0.6,0.5,1.2,0.8,1.8l-21.5,9.6
	l-0.2-0.5c-0.6-1.4-1.3-3.2-2.1-5.1c-0.4-1.1-0.8-2.1-1.3-3.3c-1-2.4-1.8-4.8-2.5-6.9l-0.6-1.9l11.6-3.7l1.2,3.4
	c0.4,1.3,0.9,2.6,1.3,3.6l-1.9,0.8l-0.1-0.2c-0.7-1.5-1.2-3.2-1.2-3.2l-6.8,2.1c0,0.1,0.6,1.9,1.4,3.7l2.7,6.7l15.2-5.9l-2.5-6.4
	c-0.4-1-0.9-2.1-1.3-3.4l-3.4-10l-25.1,7.9l3,8.7c0.7,2.1,1.6,4.8,2.7,7.3c0.4,1.1,0.8,2.1,1.3,3.1c0.8,2,1.5,3.9,2.2,5.4l3.2,7
	l34.6-15.4l-1.6-3.2c0,0-0.9-1.9-2.1-4.7l-2-5.2c-0.7-1.8-1.5-3.7-2.1-5.7l-2-6c-0.4-1.2-0.7-2.3-1-3.4c-0.2-0.6-0.4-1.3-0.5-1.8
	l-1.6-5.7l0.1,0l-0.9-3.5c0-0.1-2.8-11.2-4-22.7c-0.3-1.9-0.4-3.8-0.6-5.7c-0.1-0.9-0.1-1.8-0.2-2.6c-0.2-2.1-0.4-4.9-0.4-7.3
	l-0.3-10.7H21.5l0.1-5.3c0-2.2,0.2-5,0.5-8.8c0.1-1,0.2-1.9,0.2-2.9c0.2-2.4,0.4-4.9,0.7-7.4c1-9.6,3-19.2,4.1-24.1l36,8.4l-1,4.9
	c-0.5,2.7-1.1,5.7-1.5,9c-0.2,1.4-0.4,2.8-0.5,4.2c-0.4,2.8-0.7,5.5-0.8,7.7l-0.1,1.9L35.5,247l0.2-2.1c0.2-2.2,0.4-4.7,0.7-7.3
	c0.2-1.1,0.3-2.3,0.4-3.4c0.3-2,0.5-3.9,0.7-5.4l0.1-0.6l12,2.1c-0.2,1.2-0.4,2.5-0.5,3.7l-0.5,3.7l-2.1-0.2l0.5-3.8l-7.1-0.9
	l-1.4,10.9l16.2,1.7l1.4-10.6c0.2-1.6,0.4-3.2,0.7-4.6l1-5.7l-26-4.5l-1.4,7.6c-0.3,1.6-0.5,3.6-0.8,5.7c-0.1,1.1-0.3,2.2-0.4,3.3
	c-0.4,2.8-0.6,5.5-0.8,7.7l-0.7,9.2l37.8,2.2l0.7-8.9c0.1-2,0.4-4.5,0.8-7.2c0.2-1.4,0.4-2.9,0.5-4.2c0.4-3,1-6,1.5-8.6l0.5-2.8
	l2-8.7l0,0l2.2-7.7c0.5-1.8,1.2-4,2-6.3l0.5-1.4c0.8-2.3,1.6-4.7,2.6-7.1c1.6-4.3,3.5-8.5,5.2-12.1l1-2.2l5-9.6l-39-20.3
	c0.7-1.2,1.6-2.8,2.6-4.6c2.2-4,5.7-9.5,10.2-16.2l6-8.4l5.7-7.2c1.2-1.6,2.4-2.9,3.3-4l27.9,24l-1.4,1.6c-0.7,0.9-1.5,1.9-2.4,3
	c-1.6,2-3.4,4.2-5,6.5l-3.7,5.2c-0.8,1.1-1.5,2.2-2.2,3.2c-0.3,0.5-0.6,1-1,1.5l-1.1,1.6l-20.2-12.1l0.2-0.4c0.5-0.7,1-1.5,1.6-2.4
	c1-1.6,2.2-3.4,3.4-5.1l5.2-7.3l0.4-0.5l9.6,7.4c-0.7,0.9-1.5,2-2.2,3l-2.2,3l-1.7-1.2l2.2-3.1l-5.8-4.1l-3.6,5.1
	c-0.5,0.7-0.9,1.3-0.9,1.3l-1.7,2.9l13.4,8.9l2-3c0,0,0.5-0.7,1.2-1.7l2.9-4.1c1.9-2.8,4.1-5.4,4.1-5.5l2.3-2.8l-20.9-16l-4.8,6.1
	l-5.3,7.4c-1.3,1.8-2.5,3.7-3.6,5.4c-0.5,0.8-1,1.6-1.5,2.3l-4.2,6.5l32.3,19.4l4.8-7.4c0.3-0.5,0.7-1,1-1.6
	c0.6-0.9,1.2-1.9,1.9-2.9l3.7-5.2c1.5-2.2,3.2-4.3,4.7-6.1c0.9-1.1,1.8-2.2,2.3-3l5.9-6.7l0,0l0.5-0.5c0,0,0.5-0.5,1.3-1.4l3.8-3.9
	c1.3-1.5,3.1-3.1,5-4.9l0.3-0.3c1.9-1.9,4-3.8,6.2-5.6c3.4-3.1,7.1-5.9,10.2-8.3l2-1.6l8.9-6.2l-25-35.9l4.5-2.9
	c3.9-2.6,9.5-5.8,16.7-9.7c8.6-4.6,17.6-8.5,22.3-10.4l13.5,34.1l-1.8,0.7l-0.2,0.1c-1.1,0.5-2.3,1-3.5,1.6c-2.3,1-4.9,2.1-7.4,3.4
	l-1.7,0.8c-3.4,1.7-6.6,3.3-9,4.8l-1.7,1l-12.2-20l0.4-0.2c0.8-0.4,1.6-0.9,2.5-1.4c1.6-0.9,3.4-2,5.3-2.9l8-4l0.6-0.3l5.1,10.9
	c-0.9,0.4-1.8,0.9-2.8,1.4l-3.9,2l-1-1.8l3.4-1.7l-3.2-6.3l-9.9,5l7.8,14.2l10.1-5.1c1.3-0.7,2.6-1.3,3.6-1.8l5.3-2.4l-11-23.7
	l-7.2,3.2l-8.1,4.1c-2.1,1-4,2.1-5.8,3.1c-0.9,0.5-1.6,1-2.4,1.4l-6.7,3.8l19.6,32.1l7.8-4.4c2.3-1.4,5.3-2.9,8.6-4.6l1.7-0.8
	c2.4-1.2,4.9-2.3,7.1-3.3c1.3-0.6,2.5-1.1,3.6-1.6l8.3-3.2l0,0l7.6-2.6c2-0.7,4.4-1.4,7-2.1l1.4-0.4c2.2-0.6,4.5-1.3,6.8-1.7
	c1.1-0.2,2.2-0.5,3.3-0.7c1.8-0.4,3.4-0.8,5.1-1.1l7.3-1.3c4.3-0.6,7.2-0.9,7.2-0.9l3.6-0.4l-5.3-43.4c1.4-0.2,3.3-0.3,5.2-0.4
	c0.9-0.1,1.8-0.1,2.8-0.2c1.9-0.1,4.1-0.3,6.2-0.4l10.4-0.3c6.9,0.1,14.1,0.2,19.4,0.7l5.3,0.4l-4,36.4l-7.5-0.6
	c-1.4-0.1-2.8-0.1-4.2-0.2c-0.8,0-1.5,0-2.3-0.1c-4.1-0.2-8.2-0.1-11.4,0l-2.8,0.1l-1.4-23.4l0.5,0l9-0.2c3.5,0,7.1,0.1,9.6,0.2
	l-0.6,12l-3.8-0.1c-0.6,0-1.3,0-1.9-0.1c-0.7,0-1.3,0-1.9,0l0-2.1h0.1l3.7,0.1l0.2-7l-3.8-0.1c-2,0-3.9,0.1-3.9,0.1l-3.4,0.1
	l0.2,16.1l5.9-0.1c0.8,0,1.8,0,2.8,0c0.6,0,1.3,0,1.9,0l5,0.1c1.3,0,2.1,0.1,2.1,0.1l3.5,0.2l1.4-26.1l-3.6-0.1
	c0,0-6.7-0.2-13.5-0.3l-9.1,0.2c-2.6,0-4.4,0.2-4.5,0.2l-3.4,0.4l2.2,37.3l3.6-0.3l6.1-0.2c3.1-0.1,7-0.2,10.9,0
	c0.8,0,1.6,0,2.4,0.1c1.3,0,2.6,0,3.8,0.1l9.3,0.7l2.2,0.3l0,0l2.6,0.3l0.2,0v0l0.7,0.1l14.4,2.3l8.3,1.9c5.2,1.4,11,3,15.3,4.5
	l4.9,1.6l5.2,2.1l15.6-40.8L361,41l2.4,1.1c4.4,2,10,4.4,15.3,7.3c3.2,1.6,6.4,3.3,9,4.9l1.3,0.8c2.4,1.3,4.6,2.6,6.4,3.8l4.5,2.9
	L379.3,92l-1.7-1.1c-0.5-0.3-1-0.6-1.5-0.9c-1-0.7-2.1-1.4-3.3-2.1l-5.5-3.1c-2.5-1.4-5-2.7-7.3-3.8c-1.2-0.6-2.4-1.2-3.6-1.8
	l-1.7-0.8l9.7-21.3l0.6,0.3c1.4,0.6,3,1.4,4.8,2.4c1,0.5,2.1,1.1,3.2,1.6c2.8,1.4,5.5,2.9,7.8,4.2l0.5,0.3L375,76.1l-3.1-1.8
	c-1.1-0.7-2.2-1.2-3.3-1.7l-0.2-0.1l1-1.8l0.2,0.1c1.6,0.8,3,1.6,3.1,1.6l3.6-6.1c0,0-1.7-1-3.5-1.8l-6.5-3.3l-7.4,14.4l5.1,2.6
	c0.4,0.2,0.9,0.5,1.5,0.7c0.9,0.4,1.8,0.9,2.8,1.5l9.3,5.3L391,63.2l-6.8-3.9c-2.1-1.2-5.1-2.9-8.1-4.4c-1-0.5-2.1-1-3.1-1.6
	c-1.9-1-3.7-1.9-5.2-2.6l-7-3.1l-15.6,34.2l8,3.6c1.1,0.6,2.3,1.2,3.6,1.8c2.2,1.1,4.6,2.3,6.9,3.6l5.6,3.2c1.1,0.6,2.1,1.2,3,1.8
	c0.6,0.4,1.1,0.7,1.6,1l5.1,3.2l-0.1,0.1l3,2c0.1,0.1,9.7,6.6,18.1,14.2c5.3,4.8,8.9,8.3,11.4,11l1.7,1.7c0.8,0.8,1.4,1.5,1.9,2
	l3.7,4.2l33-29l3.4,3.9l1.3,1.6c3.1,3.9,7,8.7,10.5,13.8c5.6,7.9,10.6,16.3,13.1,20.7l-32.5,17.4l-1.9-3.3c-0.6-1-1.2-2.1-2-3.3
	L440,152c-1.3-2.1-2.7-4-3.7-5.4L433,142c-0.4-0.6-0.8-1.1-1.2-1.5l18.6-14.4l0.4,0.5c1,1.2,2.1,2.8,3.2,4.4
	c0.7,0.9,1.3,1.9,2.1,2.9c1.5,1.9,2.8,4,3.9,5.8l1.3,2l-10.3,6.3l-2-3c-0.7-1.2-1.5-2.3-2.2-3.2l1.7-1.2l0.2,0.2
	c1,1.3,1.9,2.8,1.9,2.8l6.1-3.7c0-0.1-1.1-1.7-2.2-3.3l-4.2-5.9l-13.3,9.4l3.9,5.4c0.7,0.9,1.5,2,2.2,3.2l5.8,8.9l22.4-13.7l-5.2-8
	c-1.2-1.8-2.6-4.1-4.2-6.2c-0.7-0.9-1.3-1.9-2-2.8c-1.2-1.7-2.4-3.4-3.4-4.7l-4.8-6l-29.8,23.2l2.3,2.8c0,0,1.4,1.6,3.2,4.1l3.3,4.5
	c1,1.3,2.3,3.1,3.5,5.1l3.4,5.3c0.7,1.1,1.2,2.1,1.8,3c0.3,0.6,0.7,1.1,1,1.6l2,3.4c0.3,0.6,0.5,0.9,0.6,1l1.6,3.4l0.1-0.1l1.5,2.9
	c0.6,1.1,1.2,2.4,2,4.1l3,6.7l3.1,7.9c1.9,5.3,3.8,10.8,4.9,15l1.4,4.9l1.3,5.4l42.8-10.4l1.2,5l0.6,3c0.9,4.6,2,10.4,2.6,16.1
	l0.7,5.2c0.1,1.1,0.2,2.2,0.3,3.3l0.1,1.7c0.1,1.1,0.2,2.3,0.3,3.3c0.2,2,0.3,3.9,0.4,5.6l0.1,5.3l-37,0.4l0-1.8
	c0-2.3-0.2-4.9-0.4-7.7c-0.1-1.4-0.2-2.9-0.3-4.5c-0.3-3-0.7-6.1-1.1-8.7c-0.1-1.1-0.3-2.2-0.4-3.3l-0.3-1.8l23.2-4.2l0.1,0.7
	c0.3,1.6,0.6,3.6,0.9,5.8c0.1,1,0.2,1.9,0.4,2.9l0.5,3.9l0.5,5.5l-12.1,0.8l-0.3-3.8l-0.5-3.6l2.1-0.3l0.5,3.9l7.1-0.9l-1.4-10.9
	l-16.2,2.1l1.3,10.4l0.8,10.6l26.3-1.7l-0.9-11.7l-0.6-5.1c-0.1-0.9-0.2-1.9-0.4-2.8c-0.3-2.3-0.6-4.5-0.9-6.3l-1.4-7.5l-37.2,6.7
	l1.6,8.6c0.1,1,0.3,2,0.4,3.2c0.3,2.6,0.7,5.5,1,8.4c0.1,1.5,0.2,3.1,0.3,4.6c0.2,2.6,0.4,5.1,0.4,7.2l0.2,7.4l-0.2,9.4
	c0,1.3-0.2,2.8-0.3,4.3c-0.1,1-0.2,2-0.2,3l-0.1,1.6c-0.1,0.8-0.1,1.7-0.2,2.5l-0.6,4.4c-0.5,4.3-1.3,8.6-2,12.4
	c-0.2,1.1-0.4,2.2-0.6,3.1l-2.5,10.5L502.8,325.9z M517.9,265.4l0-0.9l0-0.9h0l-0.3-10.7c-0.1-1.8-0.2-3.8-0.4-5.9
	c-0.1-1.1-0.2-2.2-0.3-3.3l-0.1-1.7c-0.1-1.1-0.2-2.3-0.3-3.6l-0.7-5.2c-0.6-5.9-1.8-11.8-2.7-16.6l-0.6-3.1l-2.8-12.1l-42.9,10.4
	l-1.1-3.7c-1.2-4.4-3.1-10.1-5.2-15.7l-2.5-6.3l-3.8-8.6c-0.6-1.4-1.2-2.6-1.7-3.6l32.9-16.7l1.3,2.5c0.5,1.2,1.1,2.5,1.8,3.9
	c1.3,2.8,2.8,5.9,4,9.1l2.9,7.2c0.6,1.4,1,2.8,1.5,4.1c0.2,0.7,0.5,1.4,0.7,2l1,2.8l-22.6,7l-0.1-0.4c-0.3-0.7-0.5-1.6-0.8-2.4
	c-0.6-1.7-1.2-3.7-2-5.6l-3.2-7.9l-0.1-0.2l11.1-4.9c0.5,1.1,1.1,2.5,1.6,3.9l1.6,3.9l-2,0.7l-1.5-3.8l-6.6,2.6l2.4,5.9
	c0.2,0.5,0.3,0.8,0.3,0.8l1.1,3.5l15.4-5.6l-1.2-3.3c0,0-0.4-1-0.9-2.4l-2-4.9c-1.4-3.8-3.1-7.3-3.2-7.5l-1.5-3.1l-24,10.5l3,6.6
	l3.1,7.8c0.7,1.7,1.3,3.6,1.8,5.2c0.3,0.9,0.6,1.8,0.9,2.5l2.3,6.9l36.1-11.1l-3.3-9.7c-0.2-0.6-0.4-1.3-0.7-1.9
	c-0.5-1.4-1-2.9-1.6-4.5l-2.8-7.1c-1.3-3.4-2.8-6.6-4.2-9.5c-0.6-1.4-1.2-2.7-1.8-4l-3.8-7.4l0,0l-1.7-3.1
	c-0.3-0.5-7-12.9-15.3-24.5c-3.6-5.3-7.6-10.2-10.8-14.2l-9.6-11.1l-33,29c-0.3-0.4-0.7-0.7-1.1-1.1l-1.6-1.6
	c-2.6-2.8-6.4-6.5-11.8-11.4c-6-5.4-12.3-10.2-15.9-12.8l21.3-29.9l2.3,1.6c1,0.8,2.2,1.7,3.4,2.6c2.5,1.9,5.2,4,7.9,6.3
	c4.1,3.5,8,6.8,10.7,9.5l2.1,2l-16.7,16.6l-0.3-0.3c-0.6-0.5-1.2-1.1-1.9-1.8c-1.3-1.3-2.8-2.7-4.4-4l-6.5-5.6l-0.2-0.2l7.6-9.4
	c1,0.8,2.1,1.7,3.2,2.7l3.2,2.8l-1.4,1.5l-3.1-2.7l-4.7,5.3l8.3,7.2l11-11.9l-8.7-7.5c-3-2.7-6.2-5.1-6.3-5.2l-2.8-2.1l-16.4,20.4
	l5.7,4.4l6.4,5.5c1.4,1.2,2.8,2.5,4.1,3.7c0.7,0.7,1.4,1.3,2,1.8l5.3,5l26.7-26.5l-7.4-7c-2.8-2.8-6.8-6.2-11-9.8
	c-2.8-2.4-5.6-4.6-8.2-6.5c-1.2-0.9-2.3-1.8-3.5-2.7l-6.8-4.8l0.1-0.1l-10.5-6.7c-2-1.3-4.3-2.6-6.8-4l-1.3-0.7
	c-2.8-1.6-6.1-3.5-9.4-5.1c-5.5-2.9-11.1-5.4-15.7-7.4l-14.2-5.7l-15.7,40.9l-3.6-1.2c-4-1.5-9.2-2.9-15.9-4.7l-8.6-2L297.6,61
	l-0.8-0.1l4.8-36.3c0.8,0.1,1.8,0.2,2.9,0.4l6.7,1.2c2.4,0.4,4.9,0.9,7.4,1.5l7.6,1.7c1.5,0.4,3,0.8,4.3,1.2c0.7,0.2,1.4,0.4,2,0.6
	l2.9,0.8l-7,22.3l-0.4-0.1c-0.8-0.2-1.6-0.4-2.5-0.7c-1.7-0.5-3.7-1.1-5.8-1.5l-8.3-1.9L311,50l2.3-11.8c1.2,0.2,2.7,0.6,4.1,0.9
	l4.1,0.9l-0.5,2l-4-0.9l-1.6,6.9l6.3,1.4c0.4,0.1,0.7,0.2,0.8,0.2l3.6,1.2l4.1-15.8l-3.3-0.9c0,0-1-0.3-2.6-0.6l-5.2-1.2
	c-3.9-1-7.8-1.6-8-1.6l-3.4-0.6l-4.9,25.7l3.6,0.6c0,0,1.5,0.2,3.5,0.7l8.3,1.9c1.8,0.4,3.7,1,5.4,1.4c1,0.3,1.9,0.5,2.6,0.7l7,2
	l11.2-35.8l-9.9-2.8c-0.6-0.2-1.3-0.4-2-0.6c-1.4-0.4-3-0.9-4.7-1.3l-7.5-1.7c-2.7-0.7-5.4-1.1-7.8-1.6l-6.6-1.2
	c-1.4-0.3-2.6-0.4-3.7-0.5c-0.5-0.1-0.9-0.1-1.3-0.2l-5.3-0.7l0,0.1l-1.6-0.2c0,0-1-0.1-2.7-0.3l-6.4-0.5
	c-5.5-0.5-12.9-0.6-20.1-0.7l-10.6,0.3c-2.3,0.1-4.5,0.3-6.5,0.4c-1,0.1-1.9,0.1-2.8,0.2c-2.7,0.2-5,0.4-6.6,0.6l-6,0.7l5.3,43.3
	c-1.1,0.1-2.5,0.3-4,0.5l-7.4,1.3c-1.9,0.3-3.7,0.7-5.6,1.2c-1,0.2-2,0.5-3.1,0.7c-2.5,0.5-4.9,1.2-7.3,1.9l-1.3,0.4
	c-2.7,0.7-5.3,1.5-7.4,2.2l-3.7,1.2l-12.7-34.4c0.8-0.3,1.7-0.6,2.8-0.9c0.7-0.2,1.3-0.4,2-0.7c1.3-0.5,2.8-0.9,4.3-1.4l7.5-2.1
	c2.1-0.6,4.4-1.2,7.3-1.8l6.7-1.5c1-0.3,2-0.4,2.8-0.6l4.2,23l-0.3,0.1c-1.5,0.3-3.2,0.7-5.1,1.1c-1,0.2-2.1,0.5-3.2,0.7
	c-2.4,0.5-4.8,1.2-6.7,1.7l-2,0.6l-3.5-11.5l4.2-1.2c1.3-0.4,2.7-0.7,4-1l0.5,2l-0.2,0c-2,0.4-3.9,1-4,1l2.1,6.7
	c0,0,1.7-0.5,3.4-0.9l7.2-1.6l-3.7-15.7l-6.7,1.5c-1.3,0.3-3,0.7-4.6,1.2l-11.1,3.1l7.6,25l8.8-2.5c1.9-0.5,4.1-1.2,6.3-1.6
	c1.1-0.2,2.2-0.5,3.3-0.8c1.8-0.4,3.5-0.8,4.8-1.1l7.3-1.3l-6.8-36.9l-5.4,1c-0.4,0.1-0.8,0.1-1.2,0.2c-1,0.2-2.3,0.4-3.6,0.7
	l-6.6,1.5c-3.1,0.7-5.5,1.3-7.7,2l-7.5,2.1c-1.6,0.5-3.2,1-4.6,1.5c-0.7,0.2-1.3,0.5-2,0.7c-3.8,1.3-6.3,2.1-6.3,2.1l-3.4,1.2
	l0.1,0.2l-1.6,0.6c-0.6,0.2-13.8,5.2-26.5,12.1c-7.4,4-13.2,7.4-17.2,10l-5.6,3.6l-4.9,3.4l25.1,35.9l-3.3,2.3l-2.1,1.6
	c-3.1,2.4-7,5.4-10.5,8.6c-2.3,1.9-4.4,3.9-6.6,6l-0.2,0.2c-2,1.8-3.8,3.6-5.3,5.2l-2.7,2.8L87.1,99.3l2-2.1c0.5-0.5,1-1,1.5-1.5
	c1-1,2-2.1,3.1-3.2l5.6-5.3c2.5-2.4,5.1-4.6,7.4-6.6c1.2-1,2.3-2,3.2-2.7l2.4-1.9L127,94.3l-0.2,0.1c-1.3,1-2.6,2.2-4.1,3.4
	c-0.8,0.7-1.6,1.4-2.4,2.1c-2.1,1.8-4.1,3.6-5.7,5.1l-1,0.9l-8.5-8.6l3.2-3c0.9-0.9,1.9-1.7,2.8-2.5l0.3-0.2l1.4,1.6l-0.1,0.1
	c-1.5,1.3-3,2.6-3,2.7l5,5c0,0,1.3-1.2,2.7-2.4l5.5-4.8l-10.7-12.2l-4.6,3.9c-0.3,0.3-0.7,0.6-1,0.9c-1,0.8-2.1,1.8-3.1,2.8
	l-8.3,7.9l18.5,18.6l6.1-5.7c1.5-1.4,3.4-3.2,5.3-4.8c0.9-0.7,1.7-1.5,2.6-2.2c1.4-1.2,2.7-2.3,3.8-3.2l5.8-4.5L113.6,66l-8.1,6.4
	c-1,0.9-2.1,1.8-3.2,2.8c-2.4,2-5.2,4.4-7.8,6.9l-5.6,5.3c-1.2,1.2-2.3,2.3-3.4,3.4c-0.5,0.5-1,1-1.5,1.5l-3.3,3.4
	c-0.9,0.9-1.4,1.5-1.4,1.5l-1.1,1.2l0,0l-4.6,5.2c-1,1.1-2.3,2.6-3.6,4.4l-5.8,7.3l-6.2,8.6c-4.7,7-8.3,12.6-10.5,16.7
	c-2.8,4.6-4.4,7.9-4.5,8l-1.5,3.1l39,20.3l-1.8,3.6l-1.1,2.4c-1.6,3.6-3.7,8-5.3,12.5c-1.1,2.5-1.9,5-2.7,7.5l-0.5,1.4
	c-0.8,2.4-1.6,4.7-2.2,6.8l-1.1,3.7l-35.8-9.1l0.8-2.8c0.2-0.7,0.4-1.4,0.6-2.1c0.4-1.3,0.8-2.8,1.3-4.2l2.5-7.3
	c0.8-2.5,1.8-4.9,2.6-7l2.5-6.2c0.4-1,0.8-1.9,1.2-2.7l21.5,9.6l-0.1,0.3c-0.6,1.4-1.3,3.1-2,4.9c-0.4,1-0.8,2-1.2,3
	c-1,2.4-1.8,4.8-2.5,6.8l-0.6,1.7l-11.6-3.7l1.4-4.1c0.4-1.3,0.9-2.6,1.4-3.7l0.1-0.1l1.9,0.8l-0.1,0.2c-0.8,1.9-1.4,3.7-1.4,3.8
	l6.8,2.1c0,0,0.5-1.7,1.2-3.3l2.7-6.8l-15.2-5.9l-2.7,6.7c-0.5,1.2-1.1,2.6-1.5,4.1l-3.7,10.8l25.1,7.9L64,195
	c0.7-1.9,1.4-4.1,2.3-6.3c0.4-1,0.8-2.1,1.2-3.1c0.7-1.7,1.3-3.3,1.9-4.5l3.1-6.7L38,159l-1.5,3.1c0,0-1.2,2.4-2.8,6.2l-2.5,6.2
	c-0.9,2.2-1.9,4.8-2.8,7.4l-2.5,7.3c-0.5,1.6-1,3.1-1.4,4.5c-0.2,0.7-0.4,1.4-0.6,2l-2.8,9.8l0.2,0l-0.4,1.6
	c-0.1,0.6-3.5,14.2-5,28.3c-0.4,2.6-0.6,5.3-0.8,7.8c-0.1,1-0.1,1.9-0.2,2.8c-0.3,4-0.5,6.9-0.5,9.3L14.2,268h44.2l0.1,3.8
	c0,2.6,0.2,5.5,0.4,7.8c0.1,0.8,0.1,1.7,0.2,2.5c0.1,2,0.3,4.1,0.6,6.1c0.8,8,2.4,15.7,3.3,20l-36,8.4l-0.6-2.8l-0.5-2.6
	c-0.7-3.5-1.4-7.4-2-11.4c-0.2-1.5-0.4-3.1-0.6-4.6c-0.5-3.5-0.9-6.8-1-9.6l-0.2-3l23.6-1.4l0.1,1.8c0.1,2,0.3,4.6,0.7,7.1
	c0.1,1.1,0.3,2.2,0.4,3.3c0.2,1.9,0.5,3.7,0.7,5.2l0,0.3l-12,2.1c-0.2-1.3-0.4-2.7-0.6-4.1l-0.5-4.2l2.1-0.2l0.5,4l7.1-0.9L43,284.7
	l-16.2,1.7l1.4,11.3c0.2,1.9,0.5,4,0.8,5.5l1.1,5.9l26-4.5l-1.3-7.2c-0.2-1.4-0.4-3.1-0.7-4.9c-0.1-1.1-0.3-2.2-0.4-3.4
	c-0.3-2.3-0.5-4.6-0.7-6.6l-0.7-8.8l-37.8,2.2l0.8,10c0.1,2.9,0.6,6.4,1.1,10c0.2,1.5,0.4,3,0.6,4.6c0.6,4.2,1.4,8.4,2,11.7
	l2.4,10.8l-0.2,0l3.4,12c0.7,2.7,1.7,5.7,2.9,8.9l0.2,0.6c1,3.1,2.1,6.2,3.4,9.3c2.2,6,4.9,11.7,7,16.3l6.6,13.1l39-20.3
	c0.5,1,1.2,2.1,1.9,3.3c2.4,4.3,5.9,9.7,8.8,14l5.1,7.1l4.6,5.8c0.9,1.2,1.8,2.3,2.6,3.1l-27.9,24l-1.8-2.1c-0.8-1-1.7-2.2-2.7-3.4
	c-1.9-2.4-4.1-5.1-6.1-7.9l-4.5-6.3c-0.9-1.3-1.7-2.5-2.5-3.7c-0.4-0.6-0.8-1.3-1.2-1.8l-1.6-2.5l20.2-12.1l0.2,0.4
	c0.4,0.7,0.9,1.4,1.4,2.2c1,1.5,2.1,3.2,3.3,4.9l3.9,5.4l1.3,1.8l-9.6,7.4c-0.8-1-1.6-2.2-2.5-3.4l-2.5-3.4l1.7-1.2l2.4,3.3l5.8-4.1
	l-3.7-5.2c-0.3-0.4-0.4-0.6-0.5-0.7l-1.9-3.2l-13.7,9.1l1.9,2.9c0,0,0.6,0.9,1.5,2.1l3.1,4.3c2.3,3.3,4.8,6.4,4.9,6.5l2.2,2.7
	l20.8-15.9l-4.5-5.7l-4.9-6.8c-1.1-1.5-2.1-3.2-3.1-4.6c-0.5-0.8-1-1.6-1.5-2.3l-3.9-6.1l-32.3,19.4l5.5,8.6
	c0.4,0.5,0.7,1.1,1.1,1.7c0.8,1.3,1.7,2.6,2.7,4l4.5,6.3c2.1,3,4.3,5.7,6.3,8.2c0.9,1.2,1.8,2.3,2.8,3.5l5.5,6.3l0,0l1.1,1.2
	l0.1,0.1l1.1,1.3c0,0,0.6,0.7,1.8,1.9l4.4,4.6c2,2.1,4.5,4.5,6.7,6.5c2.2,2.1,5,4.8,7.9,7.1c4.7,4.2,9.7,8.1,13.8,11.2l12.1,8.6
	l25.1-36l3.3,2.1c3.2,2.1,7.7,4.8,14.3,8.3c7.1,3.9,14.4,7,18.5,8.6l-13.5,34.1l-2.6-1c-1.2-0.5-2.5-1.1-3.9-1.7
	c-2.8-1.3-6.1-2.7-9.2-4.2l-0.6-0.3c-4.4-2.2-8.9-4.5-12.1-6.4l-2.6-1.5l12.2-20l0.4,0.2c0.7,0.4,1.4,0.8,2.2,1.3
	c1.6,0.9,3.4,2,5.3,2.9l7.7,3.9l0.2,0.1l-5.1,10.9c-0.9-0.4-2-1-3.1-1.5l-4.4-2.3l1-1.8l3.7,1.9l3.2-6.3l-9.8-5l-7.8,14.2l10.9,5.5
	c1.6,0.8,3.1,1.6,4.4,2.1l5.5,2.5l11-23.7l-6.6-2.9l-7.6-3.9c-1.7-0.8-3.3-1.8-4.8-2.6c-0.9-0.5-1.7-1-2.3-1.3l-6.3-3.6l-19.6,32.1
	l8.8,5c3.4,2,8,4.3,12.4,6.6l0.6,0.3c3.3,1.6,6.6,3.1,9.5,4.4c1.4,0.6,2.7,1.2,4,1.8l7.8,3.1l-0.1,0.1l3.4,1.2c0,0,3.4,1.2,8.4,2.8
	c2.6,0.9,5.6,1.8,9,2.7l1.3,0.4c2.9,0.8,6,1.7,9.1,2.4c1.2,0.3,2.3,0.5,3.5,0.8c2.3,0.5,4.7,1.1,6.9,1.5l9.1,1.6
	c1.8,0.3,3.5,0.5,4.9,0.7c0.6,0.1,1.2,0.1,1.7,0.2l6,0.7l5.3-43.3c1,0.1,2.2,0.2,3.6,0.3l0.4,0c0.8,0,1.6,0.1,2.5,0.2
	c1.6,0.1,3.3,0.3,5.2,0.4l8.8,0.2l1,0c5.8-0.1,11.3-0.2,15.5-0.6l3.9-0.3l4,36.4l-9.7,0.7c-1.6,0.1-3.2,0.1-4.9,0.2
	c-0.9,0-1.8,0-2.8,0.1c-5,0.2-10,0.1-14,0l-3.2-0.1l1.4-23.4l0.4,0l8.6,0.2c3.3,0,6.5-0.1,8.9-0.2l0.6,12l-6.3,0.2
	c-0.8,0-1.5,0-2.2,0.1l0-2.1l0.4,0l3.8-0.1l-0.2-7l-3.7,0.1c-1.8,0-3.6-0.1-3.6-0.1l-3.7-0.2l-0.2,16.2l6,0.1c1,0,2.3,0,3.6,0
	l7.4-0.2c1.5,0,2.6-0.1,2.6-0.1l3.5-0.2l-1.4-26l-3.5,0.1c0,0-6.1,0.2-12.1,0.3l-8.5-0.2c-2.1,0-3.5-0.2-3.5-0.2l-3.7-0.4l-2.2,37.5
	l3.5,0.3l7,0.3c2.4,0.1,5.4,0.2,8.6,0.2c1.9,0,3.9,0,5.8-0.1c0.9,0,1.8,0,2.6-0.1c1.8,0,3.6-0.1,5.3-0.2l11.7-0.9l3.5-0.4l0,0l6-0.8
	l15.8-2.7l10.4-2.4c8.7-2.3,14.8-4.1,19.2-5.6l2.3-0.8c1.6-0.5,2.9-1,4-1.4l5.6-2.2l-15.6-40.8l3.8-1.5l2.7-1.2
	c3.5-1.6,7.9-3.5,12-5.7c2.7-1.3,5.4-2.8,7.8-4.2l1.4-0.8c1.9-1.1,3.8-2.1,5.3-3.2l3.3-2.1l20.7,30.3l-2.5,1.6
	c-0.6,0.4-1.2,0.8-1.9,1.2c-1.2,0.7-2.4,1.5-3.8,2.3l-6.7,3.8c-3,1.7-6.1,3.3-8.9,4.6c-1.4,0.7-2.7,1.4-3.7,1.9l-2.8,1.3l-9.7-21.3
	l0.2-0.1c1.5-0.6,3.1-1.5,4.9-2.4c0.9-0.5,1.9-1,2.9-1.5c2.8-1.4,5.5-2.9,7.6-4.1l0.3-0.2l6.2,10.3l-3.8,2.2c-1,0.6-2.1,1.1-3,1.6
	c-0.2,0.1-0.4,0.2-0.6,0.3l-0.9-1.8l0.2-0.1c1.8-0.9,3.6-1.9,3.6-1.9l-3.6-6.1c0,0-1.5,0.9-3.2,1.7l-6.5,3.3l7.4,14.4l5.4-2.8
	c0.4-0.2,0.9-0.5,1.4-0.7c1.1-0.5,2.3-1.2,3.5-1.8l10-5.7l-13.5-22.4l-6.4,3.6l-0.2,0.1c-2,1.1-4.4,2.6-7,3.8c-1,0.5-2,1-3,1.5
	c-1.6,0.8-3.1,1.6-4.4,2.2l-6.7,3l15.6,34.2l9.4-4.3c1.1-0.6,2.4-1.2,3.8-1.9c2.8-1.4,6.1-3,9.2-4.8l6.7-3.8
	c1.5-0.8,2.8-1.7,4.1-2.5c0.6-0.4,1.2-0.8,1.8-1.1l8.6-5.5l-0.1-0.2l1.4-1c0.5-0.3,12.2-8.3,22.8-18c6.2-5.6,11-10.3,14.3-13.8
	l1.8-1.8c1.1-1.2,2.1-2.1,2.8-3l3.9-4.5l-33-29l2.6-3l1.6-2c2.5-3.1,5.5-6.9,8.3-10.9c4.7-6.5,8.7-13.3,10.9-17.1l32.5,17.4
	l-2.5,4.3c-0.7,1.2-1.5,2.6-2.3,3.9l-4.2,6.5c-1.5,2.4-3.1,4.6-4.2,6.2l-3.9,5.4c-0.7,0.9-1.3,1.7-1.8,2.3l-18.6-14.4l0.2-0.2
	c0.9-1.2,2-2.7,3.1-4.3c0.6-0.9,1.3-1.8,1.9-2.6c1.5-2,2.8-4.1,3.9-5.7l1.1-1.7l10.3,6.3l-2.3,3.6c-0.8,1.2-1.6,2.4-2.3,3.4
	l-1.7-1.2l0.1-0.1c1.2-1.6,2.3-3.3,2.3-3.4l-6.1-3.7c0,0-0.9,1.5-2,2.9l-4.3,5.9l13.3,9.4l4-5.6c0.8-1.1,1.8-2.5,2.6-3.8l6.2-9.6
	l-22.4-13.7l-4.9,7.6c-1.1,1.7-2.3,3.5-3.6,5.3c-0.7,0.9-1.3,1.8-2,2.7c-1.1,1.5-2,2.9-2.9,4l-4.6,5.8l29.7,23.1l2.2-2.7
	c0,0,1.7-2.1,4.2-5.4l3.9-5.4c1.2-1.6,2.9-4,4.5-6.5l4.2-6.5c0.9-1.4,1.7-2.8,2.4-4.1l3.4-5.9c0.7-1.1,1-1.8,1-1.8l0.7-1.4l0,0
	l3-5.9c0.7-1.3,1.7-3.2,2.6-5.4l3.8-8.5l3.9-9.8c3-8.3,5-14.3,6.2-18.8l1.3-4.5l1.9-7.6l-42.8-10.4l0.9-3.9c0.2-1,0.4-2.1,0.6-3.2
	c0.7-3.9,1.6-8.3,2-12.8l0.6-4.4c0.1-1,0.2-1.9,0.2-2.8l0.1-1.5c0.1-1,0.1-2,0.2-2.9c0.1-1.7,0.3-3.3,0.3-4.7l0.1-3.8l37,0.4
	l-0.1,3.1c0,2.6-0.3,5.8-0.5,9.2c-0.1,1.6-0.3,3.2-0.4,4.8c-0.4,3.9-0.9,7.9-1.4,11.3l-0.4,2.7l-0.5,3l-23.2-4.2l0-0.2
	c0.4-1.7,0.6-3.7,0.9-5.8c0.1-0.9,0.2-1.8,0.4-2.7l0.4-2.8l0.6-6l12.1,0.8l-0.3,4.1l-0.5,4.2l-2.1-0.3l0.5-4l-7.1-0.9l-1.4,10.9
	l16.2,2.1l1.4-11.5l0.9-11.3l-26.3-1.7l-0.8,11l-0.6,4.4c-0.1,0.9-0.2,1.9-0.4,2.8c-0.2,2-0.5,3.8-0.8,5.4l-1.3,7.2l37.2,6.7
	l1.8-10.1l0.4-2.8c0.5-3.5,1-7.5,1.4-11.7c0.1-1.6,0.2-3.2,0.4-4.8c0.3-3.6,0.6-7,0.6-9.7L517.9,265.4L517.9,265.4z"/>
</svg>
