<svg width="114" height="85" viewBox="0 0 114 85" fill="none" xmlns="http://www.w3.org/2000/svg">
<path d="M84 59C99.464 59 112 46.464 112 31C112 15.536 99.464 3 84 3C68.536 3 56 15.536 56 31C56 46.464 68.536 59 84 59Z" fill="#FAF6F4"/>
<path d="M33.9407 75.1648C32.3233 75.1648 31 73.8415 31 72.2241V36.9363C31 35.3189 32.3233 33.9956 33.9407 33.9956H80.9911C82.6085 33.9956 83.9318 35.3189 83.9318 36.9363V72.2241C83.9318 73.8415 82.6085 75.1648 80.9911 75.1648H33.9407Z" stroke="#16181F" stroke-width="2.94065" stroke-miterlimit="10" stroke-linecap="round"/>
<path d="M73.6402 33.9956C73.6402 33.9956 73.6402 26.791 73.6402 25.1736C73.6402 16.2046 66.4356 9 57.4666 9C48.4976 9 41.293 16.2046 41.293 25.1736C41.293 26.791 41.293 33.9956 41.293 33.9956" stroke="#16181F" stroke-width="2.94065" stroke-miterlimit="10" stroke-linecap="round"/>
<path d="M61.8766 51.6395C61.8766 49.1399 59.9652 47.2285 57.4657 47.2285C54.9661 47.2285 53.0547 49.1399 53.0547 51.6395C53.0547 52.9628 53.6428 54.1391 54.525 54.8742V58.9911C54.525 60.6085 55.8483 61.9318 57.4657 61.9318C59.083 61.9318 60.4063 60.6085 60.4063 58.9911V54.8742C61.2885 54.1391 61.8766 52.9628 61.8766 51.6395Z" fill="#FAB686" stroke="#FEFAF7" stroke-width="2.94065"/>
</svg>
