<svg width="25" height="25" viewBox="0 0 25 25" fill="none" xmlns="http://www.w3.org/2000/svg">
<path d="M8.46842 12.877C8.46842 10.6679 10.2587 8.87663 12.4678 8.87663C14.6768 8.87663 16.4681 10.6679 16.4681 12.877C16.4681 15.086 14.6768 16.8773 12.4678 16.8773C10.2587 16.8773 8.46842 15.086 8.46842 12.877ZM6.3059 12.877C6.3059 16.2802 9.06454 19.0388 12.4678 19.0388C15.871 19.0388 18.6296 16.2802 18.6296 12.877C18.6296 9.47372 15.871 6.71508 12.4678 6.71508C9.06454 6.71508 6.3059 9.47372 6.3059 12.877ZM17.4335 6.47081C17.4335 7.26564 18.0781 7.9112 18.8739 7.9112C19.6687 7.9112 20.3143 7.26564 20.3143 6.47081C20.3143 5.67598 19.6697 5.0314 18.8739 5.0314C18.0781 5.0314 17.4335 5.67598 17.4335 6.47081ZM7.61931 22.6446C6.44936 22.5913 5.81349 22.3965 5.39088 22.2317C4.83062 22.0136 4.43126 21.7539 4.01058 21.3341C3.59088 20.9144 3.33013 20.5151 3.11301 19.9548C2.94823 19.5322 2.7534 18.8963 2.70008 17.7264C2.64193 16.4614 2.63029 16.0815 2.63029 12.877C2.63029 9.67243 2.64289 9.29343 2.70008 8.02752C2.7534 6.85757 2.9492 6.22267 3.11301 5.79909C3.3311 5.23883 3.59088 4.83947 4.01058 4.41879C4.43029 3.99909 4.82965 3.73834 5.39088 3.52122C5.81349 3.35644 6.44936 3.16161 7.61931 3.10829C8.88425 3.05014 9.26422 3.0385 12.4678 3.0385C15.6723 3.0385 16.0513 3.05111 17.3172 3.10829C18.4872 3.16161 19.1221 3.35741 19.5456 3.52122C20.1059 3.73834 20.5053 3.99909 20.9259 4.41879C21.3456 4.8385 21.6054 5.23883 21.8235 5.79909C21.9883 6.2217 22.1831 6.85757 22.2364 8.02752C22.2946 9.29343 22.3062 9.67243 22.3062 12.877C22.3062 16.0805 22.2946 16.4605 22.2364 17.7264C22.1831 18.8963 21.9873 19.5322 21.8235 19.9548C21.6054 20.5151 21.3456 20.9144 20.9259 21.3341C20.5062 21.7539 20.1059 22.0136 19.5456 22.2317C19.123 22.3965 18.4872 22.5913 17.3172 22.6446C16.0523 22.7028 15.6723 22.7144 12.4678 22.7144C9.26422 22.7144 8.88425 22.7028 7.61931 22.6446ZM7.52044 0.949651C6.24289 1.00781 5.37052 1.21039 4.60768 1.507C3.81866 1.8133 3.14984 2.22429 2.48199 2.89117C1.81511 3.55805 1.40412 4.22687 1.09782 5.01686C0.801215 5.7797 0.59863 6.65207 0.540471 7.92962C0.481344 9.2091 0.467773 9.61815 0.467773 12.877C0.467773 16.1358 0.481344 16.5448 0.540471 17.8243C0.59863 19.1018 0.801215 19.9742 1.09782 20.737C1.40412 21.5261 1.81414 22.1959 2.48199 22.8627C3.14887 23.5296 3.81769 23.9396 4.60768 24.2469C5.37149 24.5435 6.24289 24.7461 7.52044 24.8043C8.80089 24.8624 9.20897 24.877 12.4678 24.877C15.7275 24.877 16.1356 24.8634 17.4151 24.8043C18.6927 24.7461 19.565 24.5435 20.3279 24.2469C21.1169 23.9396 21.7857 23.5296 22.4536 22.8627C23.1204 22.1959 23.5305 21.5261 23.8377 20.737C24.1343 19.9742 24.3379 19.1018 24.3951 17.8243C24.4532 16.5438 24.4668 16.2588 24.4668 13C24.4668 9.74115 24.4532 9.2091 24.3951 7.92962C24.3369 6.65207 24.1343 5.7797 23.8377 5.01686C23.5305 4.22784 23.1204 3.55902 22.4536 2.89117C21.7867 2.22429 21.1169 1.8133 20.3288 1.507C19.565 1.21039 18.6927 1.00684 17.4161 0.949651C16.1366 0.891493 15.7275 0.876953 12.4687 0.876953C9.20897 0.876953 8.80089 0.890523 7.52044 0.949651Z" fill="white"/>
</svg>
