<svg width="146" height="36" viewBox="0 0 146 36" fill="none" xmlns="http://www.w3.org/2000/svg">
<path d="M56.6831 32.6197C57.5231 32.7691 58.1858 32.8437 58.6711 32.8437C59.6604 32.8437 60.3511 32.5637 60.7431 32.0037C61.1538 31.4437 61.3591 30.4731 61.3591 29.0917V9.23975H63.0951V29.1477C63.0951 30.9957 62.7684 32.3304 62.1151 33.1517C61.4804 33.9731 60.4258 34.3837 58.9511 34.3837C58.3351 34.3837 57.5791 34.3091 56.6831 34.1597V32.6197Z" fill="white"/>
<path d="M79.2918 15.1477V29.1757H77.6398V26.6277C77.1918 27.5237 76.5571 28.2051 75.7358 28.6717C74.9145 29.1384 73.9718 29.3717 72.9078 29.3717C71.2651 29.3717 70.0238 28.9144 69.1838 27.9997C68.3438 27.0851 67.9238 25.7317 67.9238 23.9397V15.1477H69.6038V23.8277C69.6038 25.2091 69.8838 26.2264 70.4438 26.8797C71.0038 27.5331 71.8718 27.8597 73.0478 27.8597C74.4291 27.8597 75.5305 27.4304 76.3518 26.5717C77.1731 25.6944 77.5838 24.5371 77.5838 23.0997V15.1477H79.2918Z" fill="white"/>
<path d="M88.5132 29.3717C86.2359 29.3717 84.4345 28.7464 83.1092 27.4957L83.7252 26.1797C84.4719 26.7957 85.2185 27.2344 85.9652 27.4957C86.7305 27.7571 87.6079 27.8877 88.5972 27.8877C89.7545 27.8877 90.6319 27.6917 91.2292 27.2997C91.8452 26.8891 92.1532 26.3011 92.1532 25.5357C92.1532 24.9011 91.9479 24.4064 91.5372 24.0517C91.1452 23.6784 90.4919 23.3797 89.5772 23.1557L87.1972 22.6237C86.0772 22.3624 85.1905 21.8957 84.5372 21.2237C83.9025 20.5517 83.5852 19.7677 83.5852 18.8717C83.5852 17.6397 84.0519 16.6597 84.9852 15.9317C85.9372 15.1851 87.1972 14.8117 88.7652 14.8117C89.7545 14.8117 90.6692 14.9704 91.5092 15.2877C92.3679 15.6051 93.0772 16.0624 93.6372 16.6597L92.9932 17.9757C91.7052 16.8557 90.2959 16.2957 88.7652 16.2957C87.6825 16.2957 86.8425 16.5104 86.2452 16.9397C85.6479 17.3691 85.3492 17.9664 85.3492 18.7317C85.3492 19.3664 85.5359 19.8797 85.9092 20.2717C86.3012 20.6637 86.8985 20.9531 87.7012 21.1397L90.1092 21.7277C92.6292 22.2877 93.8892 23.5291 93.8892 25.4517C93.8892 26.6277 93.4039 27.5797 92.4332 28.3077C91.4625 29.0171 90.1559 29.3717 88.5132 29.3717Z" fill="white"/>
<path d="M100.028 16.5197V24.8637C100.028 25.9837 100.243 26.7584 100.672 27.1877C101.102 27.6171 101.736 27.8317 102.576 27.8317C103.099 27.8317 103.603 27.7477 104.088 27.5797V29.1197C103.491 29.2691 102.884 29.3437 102.268 29.3437C101.036 29.3437 100.066 28.9984 99.3564 28.3077C98.6658 27.6171 98.3204 26.5811 98.3204 25.1997V16.5197H95.5484V15.1477H98.3204V11.4237L100.028 10.7797V15.1477H104.172V16.5197H100.028Z" fill="white"/>
<path d="M107.082 15.1477H108.762V29.1757H107.082V15.1477ZM109.098 9.35175V11.5357H106.83V9.35175H109.098Z" fill="white"/>
<path d="M119.137 29.3717C117.812 29.3717 116.654 29.0731 115.665 28.4757C114.676 27.8784 113.91 27.0384 113.369 25.9557C112.828 24.8544 112.557 23.5851 112.557 22.1477C112.557 20.6917 112.828 19.4131 113.369 18.3117C113.91 17.1917 114.685 16.3331 115.693 15.7357C116.701 15.1197 117.868 14.8117 119.193 14.8117C120.145 14.8117 121.05 14.9797 121.909 15.3157C122.786 15.6331 123.505 16.0811 124.065 16.6597L123.393 18.0037C122.665 17.4064 121.965 16.9771 121.293 16.7157C120.64 16.4357 119.958 16.2957 119.249 16.2957C117.737 16.2957 116.542 16.8184 115.665 17.8637C114.788 18.8904 114.349 20.3184 114.349 22.1477C114.349 23.9397 114.778 25.3397 115.637 26.3477C116.514 27.3557 117.718 27.8597 119.249 27.8597C119.958 27.8597 120.64 27.7291 121.293 27.4677C121.965 27.1877 122.665 26.7584 123.393 26.1797L124.065 27.4957C123.468 28.0744 122.721 28.5317 121.825 28.8677C120.948 29.2037 120.052 29.3717 119.137 29.3717Z" fill="white"/>
<path d="M127.18 15.1477H128.86V29.1757H127.18V15.1477ZM129.196 9.35175V11.5357H126.928V9.35175H129.196Z" fill="white"/>
<path d="M145.451 15.1477V29.1757H143.743V26.4877C143.332 27.4211 142.707 28.1397 141.867 28.6437C141.045 29.1291 140.056 29.3717 138.899 29.3717C137.648 29.3717 136.547 29.0824 135.595 28.5037C134.661 27.9064 133.933 27.0664 133.411 25.9837C132.907 24.8824 132.655 23.6037 132.655 22.1477C132.655 20.6917 132.916 19.4131 133.439 18.3117C133.961 17.1917 134.689 16.3331 135.623 15.7357C136.575 15.1197 137.667 14.8117 138.899 14.8117C140.037 14.8117 141.017 15.0544 141.839 15.5397C142.679 16.0251 143.313 16.7344 143.743 17.6677V15.1477H145.451ZM139.151 27.8597C140.607 27.8597 141.736 27.3557 142.539 26.3477C143.341 25.3397 143.743 23.9211 143.743 22.0917C143.743 20.2437 143.341 18.8157 142.539 17.8077C141.736 16.7997 140.597 16.2957 139.123 16.2957C137.648 16.2957 136.5 16.8184 135.679 17.8637C134.857 18.8904 134.447 20.3184 134.447 22.1477C134.447 23.9584 134.857 25.3677 135.679 26.3757C136.5 27.3651 137.657 27.8597 139.151 27.8597Z" fill="white"/>
<path fill-rule="evenodd" clip-rule="evenodd" d="M29.532 18.6456L32.0816 9.1293H21.4409V25.6861H19.432V9.1293H8.7914L11.341 18.6456H14.9657V19.647C14.9657 21.6375 14.1793 23.5297 12.7724 24.9366C11.3655 26.3435 9.47334 27.1299 7.48283 27.1299C5.49232 27.1299 3.60011 26.3435 2.19324 24.9366C0.786373 23.5359 0 21.6437 0 19.6532V18.6518H3.62469L6.05753 9.58392C5.81793 9.71293 5.54761 9.78665 5.25887 9.78665C4.34348 9.78665 3.60011 9.04329 3.60011 8.1279C3.60011 7.21251 4.34348 6.46914 5.25887 6.46914C5.7995 6.46914 6.2787 6.72717 6.57973 7.12036H18.1726V7.11422C17.761 6.35856 17.5459 5.5169 17.5459 4.6568C17.5459 3.79671 17.761 2.95504 18.1726 2.19939C18.5842 1.44373 19.1801 0.810947 19.9051 0.344038L20.4396 0L20.9802 0.350182C21.7051 0.810947 22.2949 1.44987 22.7065 2.20553C23.1181 2.96118 23.3332 3.80285 23.3332 4.66294C23.3332 5.52304 23.1181 6.3647 22.7065 7.12036V7.1265H34.2994C34.6004 6.72717 35.0796 6.47529 35.6202 6.47529C36.5356 6.47529 37.279 7.21866 37.279 8.13404C37.279 9.04943 36.5356 9.7928 35.6202 9.7928C35.3315 9.7928 35.055 9.71908 34.8216 9.59006L37.2544 18.6579H40.8791V19.6593C40.8791 21.6498 40.0927 23.542 38.6859 24.9489C37.279 26.3558 35.3868 27.1421 33.3963 27.1421C31.4058 27.1421 29.5136 26.3558 28.1067 24.9489C26.6998 23.542 25.9134 21.6498 25.9134 19.6593V18.6579H29.532V18.6456ZM17.976 27.0438C16.8702 27.0438 15.9671 27.947 15.9671 29.0528H17.976H19.9849H20.8942H22.9031H24.912C24.912 27.947 24.0089 27.0438 22.9031 27.0438H20.8942H19.9849H17.976ZM15.2483 30.3614H14.6585C13.5526 30.3614 12.6495 31.2645 12.6495 32.3703H15.2483H16.6613H24.2055H25.336H28.2234C28.2234 31.2645 27.3203 30.3614 26.2145 30.3614H25.336H24.2055H16.6674H15.2483ZM12.5635 33.6789H11.3471C10.2413 33.6789 9.33818 34.582 9.33818 35.6878H12.5635H13.3561H27.523H28.6535H31.5409C31.5409 34.582 30.6378 33.6789 29.532 33.6789H28.6535H27.523H13.3499H12.5635ZM32.3273 20.6546C27.4432 20.6546 31.203 26.4172 35.4175 24.74C36.0994 24.4697 36.7322 24.0581 37.2667 23.5236C38.0592 22.7311 38.5814 21.7358 38.778 20.6546H32.3273ZM31.6085 18.6456H35.1718L33.3901 11.9983L31.6085 18.6456ZM7.48283 12.0045L5.7012 18.6518H9.26445L7.48283 12.0045ZM20.4396 6.8439C20.6423 6.64116 20.8143 6.40771 20.9495 6.15582C21.2013 5.69506 21.3304 5.18515 21.3304 4.66294C21.3304 4.14074 21.2013 3.62469 20.9495 3.17007C20.8082 2.91818 20.6361 2.68473 20.4396 2.48199C20.2368 2.68473 20.0648 2.91818 19.9296 3.17007C19.6778 3.63083 19.5487 4.14074 19.5487 4.66294C19.5487 5.18515 19.6778 5.7012 19.9296 6.15582C20.0648 6.40771 20.2368 6.63502 20.4396 6.8439ZM12.8646 20.6546H6.41385C1.52974 20.6546 5.28959 26.4172 9.50405 24.74C10.186 24.4697 10.8188 24.0581 11.3533 23.5236C12.1458 22.7311 12.668 21.7358 12.8646 20.6546Z" fill="#F3BB93"/>
</svg>
