<svg width="25" height="20" viewBox="0 0 25 20" fill="none" xmlns="http://www.w3.org/2000/svg">
<path d="M16.5038 0.0629232V0.0585938H17.6292L18.0404 0.140854C18.3145 0.194258 18.5634 0.264244 18.787 0.350834C19.0106 0.437423 19.227 0.538452 19.4362 0.653898C19.6454 0.769343 19.8351 0.886975 20.0054 1.00675C20.1742 1.1251 20.3257 1.25065 20.4599 1.38342C20.5926 1.51763 20.7996 1.55227 21.0809 1.48732C21.3623 1.42238 21.6652 1.33218 21.9899 1.21673C22.3145 1.10128 22.6355 0.9714 22.9529 0.827077C23.2703 0.682754 23.4636 0.59112 23.5329 0.552155C23.6007 0.511761 23.6368 0.490113 23.6411 0.487213L23.6454 0.480718L23.6671 0.469895L23.6887 0.459071L23.7103 0.448247L23.732 0.437423L23.7363 0.430929L23.7428 0.4266L23.7493 0.42227L23.7536 0.415776L23.7753 0.409282L23.7969 0.404952L23.7926 0.437423L23.7861 0.469895L23.7753 0.502366L23.7644 0.534837L23.7536 0.556484L23.7428 0.578132L23.732 0.610603C23.7248 0.63225 23.7176 0.661106 23.7103 0.697192C23.7031 0.733279 23.6346 0.87758 23.5047 1.13014C23.3749 1.3827 23.2126 1.63885 23.0178 1.89862C22.823 2.15839 22.6485 2.35465 22.4941 2.48743C22.3383 2.62165 22.2351 2.71545 22.1846 2.76885C22.1341 2.82368 22.0728 2.87419 22.0007 2.92038L21.8925 2.99182L21.8708 3.00264L21.8492 3.01347L21.8449 3.01996L21.8384 3.02429L21.8319 3.02862L21.8276 3.03511L21.8059 3.04594L21.7843 3.05676L21.78 3.06325L21.7735 3.06758L21.767 3.07191L21.7626 3.07841L21.7583 3.0849L21.7518 3.08923L21.7453 3.09356L21.741 3.10006H21.8492L22.4552 2.97017C22.8591 2.88358 23.2451 2.77896 23.6129 2.65628L24.1973 2.46146L24.2622 2.43981L24.2946 2.42899L24.3163 2.41816L24.3379 2.40734L24.3596 2.39651L24.3812 2.38569L24.4245 2.3792L24.4678 2.37487V2.41816L24.457 2.42249L24.4461 2.42899L24.4418 2.43548L24.4353 2.43981L24.4288 2.44414L24.4245 2.45063L24.4202 2.45713L24.4137 2.46146L24.4072 2.46579L24.4029 2.47228L24.3985 2.47877L24.392 2.4831L24.3812 2.50475L24.3704 2.5264L24.3639 2.53073C24.361 2.53506 24.2694 2.65771 24.0891 2.89873C23.9087 3.14119 23.8113 3.26384 23.7969 3.26674C23.7825 3.27107 23.7623 3.29272 23.7363 3.33168C23.7118 3.37208 23.5588 3.533 23.2775 3.81442C22.9962 4.09584 22.7206 4.34621 22.4508 4.56559C22.1796 4.78639 22.0425 5.0577 22.0397 5.37953C22.0353 5.69991 22.0187 6.06216 21.9899 6.46623C21.961 6.87032 21.9069 7.30686 21.8276 7.7759C21.7482 8.24493 21.6256 8.77529 21.4597 9.36698C21.2938 9.95867 21.0918 10.5359 20.8537 11.0988C20.6157 11.6616 20.3668 12.1667 20.1071 12.6141C19.8474 13.0615 19.6093 13.4403 19.3929 13.7506C19.1765 14.0609 18.9565 14.3531 18.7329 14.6273C18.5093 14.9015 18.2265 15.2104 17.8846 15.5538C17.5412 15.8958 17.3536 16.0835 17.3219 16.1166C17.2887 16.1484 17.1473 16.2667 16.8977 16.4717C16.6496 16.678 16.3827 16.8844 16.097 17.0908C15.8128 17.2957 15.5516 17.4667 15.3136 17.6038C15.0755 17.7409 14.7884 17.8975 14.4523 18.0736C14.1176 18.2511 13.7554 18.4156 13.3659 18.5671C12.9763 18.7187 12.5652 18.8594 12.1323 18.9893C11.6995 19.1191 11.2811 19.2202 10.8772 19.2923C10.4732 19.3645 10.0151 19.4258 9.50294 19.4763L8.73468 19.5521V19.5629H7.32801V19.5521L7.14406 19.5413C7.02144 19.5341 6.92044 19.5268 6.84108 19.5196C6.76175 19.5124 6.46236 19.4727 5.94298 19.4006C5.42359 19.3284 5.01602 19.2562 4.72025 19.1841C4.42451 19.1119 3.98446 18.9748 3.40015 18.7728C2.81583 18.5707 2.31592 18.3665 1.90042 18.1602C1.48636 17.9552 1.22666 17.8253 1.12134 17.7705C1.01746 17.7171 0.900596 17.6507 0.770749 17.5714L0.575979 17.4523L0.571672 17.4458L0.565158 17.4415L0.558666 17.4371L0.554338 17.4306L0.532697 17.4198L0.511056 17.409L0.506749 17.4025L0.500235 17.3982L0.493743 17.3938L0.489415 17.3873L0.485108 17.3809L0.478594 17.3765H0.467773V17.3332L0.489415 17.3376L0.511056 17.3441L0.608441 17.3549C0.673364 17.3621 0.963279 17.3838 1.25182 17.3982C1.54038 17.4127 1.73378 17.4018 2.0584 17.3873C2.38301 17.3729 2.71486 17.3404 3.05389 17.2899C3.39294 17.2394 3.7933 17.1528 4.25497 17.0302C4.71666 16.9075 5.14083 16.7617 5.52749 16.5929C5.9127 16.4226 6.18681 16.2956 6.34985 16.2119C6.51142 16.1296 6.75813 15.9767 7.08996 15.753L7.5877 15.4174L7.59203 15.4109L7.59852 15.4066L7.60504 15.4023L7.60934 15.3958L7.61367 15.3893L7.62016 15.385L7.62668 15.3806L7.63098 15.3741L7.65262 15.3676L7.67427 15.3633L7.67859 15.3417L7.68509 15.32L7.6916 15.3157L7.69591 15.3092L7.52278 15.2984C7.40737 15.2912 7.29555 15.2839 7.18734 15.2767C7.07913 15.2695 6.90962 15.237 6.67877 15.1793C6.44795 15.1216 6.19908 15.035 5.93216 14.9195C5.66526 14.8041 5.40556 14.667 5.15308 14.5082C4.90061 14.3495 4.71809 14.2174 4.60556 14.1121C4.49447 14.0082 4.35019 13.861 4.17273 13.6705C3.99673 13.4786 3.84379 13.2815 3.71394 13.0795C3.58409 12.8775 3.46003 12.6444 3.34174 12.3803L3.16209 11.9863L3.15127 11.9538L3.14045 11.9214L3.13396 11.8997L3.12963 11.8781L3.16209 11.8824L3.19455 11.8889L3.43261 11.9214C3.59132 11.943 3.8402 11.9502 4.17923 11.943C4.51828 11.9358 4.75272 11.9214 4.88256 11.8997C5.01241 11.8781 5.09177 11.8636 5.12061 11.8564L5.1639 11.8456L5.218 11.8348L5.2721 11.824L5.27643 11.8175L5.28292 11.8131L5.28944 11.8088L5.29374 11.8023L5.25046 11.7915L5.20718 11.7807L5.1639 11.7698L5.12061 11.759L5.07733 11.7482C5.04848 11.741 4.998 11.7266 4.92584 11.7049C4.85371 11.6833 4.65894 11.6039 4.34153 11.4668C4.02414 11.3297 3.77166 11.1962 3.58409 11.0663C3.39607 10.936 3.21678 10.7936 3.04739 10.6398C2.87859 10.484 2.69322 10.2834 2.49122 10.0381C2.28924 9.79272 2.10891 9.50769 1.95019 9.18298C1.7915 8.85827 1.67247 8.548 1.59311 8.25214C1.51407 7.95802 1.46193 7.65733 1.43732 7.35377L1.39834 6.89918L1.41998 6.90351L1.44162 6.91L1.46326 6.92082L1.48491 6.93165L1.50655 6.94247L1.52819 6.9533L1.86363 7.10483C2.08726 7.20586 2.36499 7.29245 2.69681 7.3646C3.02865 7.43675 3.22702 7.47645 3.29194 7.48366L3.38932 7.49448H3.58409L3.57979 7.48799L3.57327 7.48366L3.56678 7.47933L3.56245 7.47283L3.55815 7.46634L3.55163 7.46201L3.54514 7.45768L3.54081 7.45119L3.51917 7.44036L3.49753 7.42954L3.49322 7.42304L3.48671 7.41871L3.48022 7.41438L3.47589 7.40789L3.45425 7.39707L3.43261 7.38624L3.4283 7.37975C3.42397 7.37685 3.36193 7.33067 3.24216 7.24121C3.12385 7.15029 2.99978 7.03268 2.86994 6.88835C2.74009 6.74403 2.61024 6.5925 2.4804 6.43376C2.35031 6.27465 2.23445 6.10443 2.13414 5.92504C2.03316 5.74466 1.92638 5.51517 1.81385 5.23666C1.70277 4.95957 1.61837 4.68032 1.56065 4.3989C1.50295 4.11748 1.47049 3.83968 1.46326 3.56547C1.45606 3.29127 1.46326 3.05676 1.48491 2.86193C1.50655 2.66711 1.54983 2.44702 1.61475 2.20169C1.67968 1.95636 1.77347 1.69659 1.89609 1.42238L2.08004 1.01108L2.09086 0.978609L2.10168 0.946138L2.10819 0.941808L2.1125 0.935314L2.11683 0.92882L2.12332 0.92449L2.12983 0.92882L2.13414 0.935314L2.13847 0.941808L2.14496 0.946138L2.15147 0.950467L2.15578 0.956961L2.16011 0.963456L2.1666 0.967785L2.17742 0.989433L2.18824 1.01108L2.19476 1.01541L2.19906 1.0219L2.49122 1.34661C2.68599 1.56309 2.91683 1.80483 3.18373 2.0718C3.45066 2.33878 3.59853 2.47732 3.62738 2.48743C3.65625 2.49897 3.6923 2.53216 3.73558 2.58701C3.77886 2.64042 3.92315 2.76814 4.1684 2.97017C4.41369 3.17221 4.73469 3.40673 5.13143 3.67371C5.5282 3.94069 5.96823 4.20407 6.45154 4.46384C6.93488 4.72361 7.45426 4.95812 8.0097 5.16738C8.56517 5.37665 8.95471 5.51374 9.17832 5.57868C9.40196 5.64363 9.78428 5.7266 10.3253 5.82763C10.8663 5.92866 11.2739 5.9936 11.548 6.02246C11.8222 6.05131 12.0097 6.06792 12.1107 6.07225L12.2622 6.07657L12.2579 6.0441L12.2514 6.01163L12.2081 5.74104C12.1792 5.56065 12.1648 5.30809 12.1648 4.98338C12.1648 4.65867 12.1901 4.35922 12.2405 4.08501C12.2911 3.81081 12.3668 3.533 12.4678 3.25159C12.5688 2.97017 12.6676 2.7443 12.7643 2.57402C12.8624 2.40517 12.9908 2.21251 13.1495 1.99604C13.3082 1.77956 13.5138 1.55588 13.7662 1.32497C14.0187 1.09405 14.3073 0.888404 14.6319 0.708016C14.9565 0.527628 15.2559 0.390514 15.53 0.296715C15.8041 0.202917 16.035 0.141568 16.2225 0.112712C16.4101 0.0838563 16.5038 0.0672527 16.5038 0.0629232Z" fill="white"/>
</svg>
